name Walk7.mot
datacolumns 19
datarows 25
range 3.34300000 3.36700000
endheader

                time	   L_ground_force_vx	   L_ground_force_vy	   L_ground_force_vz	   L_ground_force_px	   L_ground_force_py	   L_ground_force_pz	   R_ground_force_vx	   R_ground_force_vy	   R_ground_force_vz	   R_ground_force_px	   R_ground_force_py	   R_ground_force_pz	   L_ground_torque_x	   L_ground_torque_y	   L_ground_torque_z	   R_ground_torque_x	   R_ground_torque_y	   R_ground_torque_z	
          3.34300000	          0.06590543	          0.17923358	         -0.00097338	         -0.00036008	          0.00000000	         -0.00007416	         -8.98233654	        741.29000000	        -59.41730077	          0.21066107	          0.00000000	          0.15501630	          0.00000000	          0.00009585	          0.00000000	          0.00000000	         10.06185125	          0.00000000	
          3.34400000	          0.06246960	          0.16803748	         -0.00122845	         -0.00035316	          0.00000000	         -0.00007277	         -8.72723468	        740.45540145	        -59.31991896	          0.21091827	          0.00000000	          0.15511181	          0.00000000	          0.00009916	          0.00000000	          0.00000000	          9.98910671	          0.00000000	
          3.34500000	          0.05908985	          0.15715833	         -0.00145719	         -0.00034549	          0.00000000	         -0.00007122	         -8.47291101	        739.62614749	        -59.22936903	          0.21117482	          0.00000000	          0.15520694	          0.00000000	          0.00010180	          0.00000000	          0.00000000	          9.91692750	          0.00000000	
          3.34600000	          0.05577416	          0.14661031	         -0.00166097	         -0.00033717	          0.00000000	         -0.00006954	         -8.21938223	        738.80195679	        -59.14565062	          0.21143073	          0.00000000	          0.15530169	          0.00000000	          0.00010384	          0.00000000	          0.00000000	          9.84532153	          0.00000000	
          3.34700000	          0.05252964	          0.13640513	         -0.00184115	         -0.00032828	          0.00000000	         -0.00006773	         -7.96665795	        737.98258598	        -59.06873509	          0.21168600	          0.00000000	          0.15539607	          0.00000000	          0.00010531	          0.00000000	          0.00000000	          9.77429610	          0.00000000	
          3.34800000	          0.04936247	          0.12655218	         -0.00199905	         -0.00031891	          0.00000000	         -0.00006583	         -7.71474100	        737.16782844	        -58.99856553	          0.21194062	          0.00000000	          0.15549008	          0.00000000	          0.00010626	          0.00000000	          0.00000000	          9.70385797	          0.00000000	
          3.34900000	          0.04627807	          0.11705877	         -0.00213598	         -0.00030912	          0.00000000	         -0.00006383	         -7.46362823	        736.35751346	        -58.93505712	          0.21219459	          0.00000000	          0.15558371	          0.00000000	          0.00010673	          0.00000000	          0.00000000	          9.63401343	          0.00000000	
          3.35000000	          0.04328104	          0.10793018	         -0.00225319	         -0.00029901	          0.00000000	         -0.00006177	         -7.21331136	        735.55150681	        -58.87809789	          0.21244788	          0.00000000	          0.15567694	          0.00000000	          0.00010675	          0.00000000	          0.00000000	          9.56476845	          0.00000000	
          3.35100000	          0.04037528	          0.09916990	         -0.00235192	         -0.00028862	          0.00000000	         -0.00005964	         -6.96377801	        734.74971266	        -58.82754984	          0.21270047	          0.00000000	          0.15576977	          0.00000000	          0.00010637	          0.00000000	          0.00000000	          9.49612881	          0.00000000	
          3.35200000	          0.03756401	          0.09077972	         -0.00243337	         -0.00027802	          0.00000000	         -0.00005748	         -6.71501278	        733.95207597	        -58.78325026	          0.21295233	          0.00000000	          0.15586216	          0.00000000	          0.00010562	          0.00000000	          0.00000000	          9.42810014	          0.00000000	
          3.35300000	          0.03484982	          0.08275987	         -0.00249870	         -0.00026728	          0.00000000	         -0.00005528	         -6.46699807	        733.15858394	        -58.74501297	          0.21320342	          0.00000000	          0.15595410	          0.00000000	          0.00010453	          0.00000000	          0.00000000	          9.36068782	          0.00000000	
          3.35400000	          0.03223472	          0.07510918	         -0.00254903	         -0.00025644	          0.00000000	         -0.00005305	         -6.21971474	        732.36926590	        -58.71262946	          0.21345371	          0.00000000	          0.15604555	          0.00000000	          0.00010314	          0.00000000	          0.00000000	          9.29389682	          0.00000000	
          3.35500000	          0.02972015	          0.06782515	         -0.00258545	         -0.00024555	          0.00000000	         -0.00005082	         -5.97314227	        731.58419183	        -58.68586979	          0.21370317	          0.00000000	          0.15613650	          0.00000000	          0.00010148	          0.00000000	          0.00000000	          9.22773159	          0.00000000	
          3.35600000	          0.02730708	          0.06090415	         -0.00260900	         -0.00023466	          0.00000000	         -0.00004858	         -5.72725880	        730.80347017	        -58.66448348	          0.21395175	          0.00000000	          0.15622689	          0.00000000	          0.00009958	          0.00000000	          0.00000000	          9.16219601	          0.00000000	
          3.35700000	          0.02499599	          0.05434146	         -0.00262069	         -0.00022381	          0.00000000	         -0.00004635	         -5.48204076	        730.02724577	        -58.64820038	          0.21419941	          0.00000000	          0.15631671	          0.00000000	          0.00009746	          0.00000000	          0.00000000	          9.09729344	          0.00000000	
          3.35800000	          0.02278694	          0.04813141	         -0.00262149	         -0.00021303	          0.00000000	         -0.00004414	         -5.23746258	        729.25569826	        -58.63673183	          0.21444609	          0.00000000	          0.15640590	          0.00000000	          0.00009515	          0.00000000	          0.00000000	          9.03302683	          0.00000000	
          3.35900000	          0.02067961	          0.04226749	         -0.00261231	         -0.00020237	          0.00000000	         -0.00004194	         -4.99349648	        728.48904054	        -58.62977203	          0.21469174	          0.00000000	          0.15649443	          0.00000000	          0.00009268	          0.00000000	          0.00000000	          8.96939880	          0.00000000	
          3.36000000	          0.01867331	          0.03674242	         -0.00259404	         -0.00019185	          0.00000000	         -0.00003978	         -4.75011267	        727.72751714	        -58.62699981	          0.21493631	          0.00000000	          0.15658226	          0.00000000	          0.00009007	          0.00000000	          0.00000000	          8.90641178	          0.00000000	
          3.36100000	          0.01676703	          0.03154828	         -0.00256752	         -0.00018150	          0.00000000	         -0.00003765	         -4.50727995	        726.97140233	        -58.62808055	          0.21517975	          0.00000000	          0.15666934	          0.00000000	          0.00008735	          0.00000000	          0.00000000	          8.84406813	          0.00000000	
          3.36200000	          0.01495947	          0.02667655	         -0.00253356	         -0.00017134	          0.00000000	         -0.00003555	         -4.26496658	        726.22099833	        -58.63266814	          0.21542201	          0.00000000	          0.15675563	          0.00000000	          0.00008452	          0.00000000	          0.00000000	          8.78237021	          0.00000000	
          3.36300000	          0.01324908	          0.02211823	         -0.00249291	         -0.00016140	          0.00000000	         -0.00003350	         -4.02314135	        725.47663401	        -58.64040694	          0.21566302	          0.00000000	          0.15684108	          0.00000000	          0.00008161	          0.00000000	          0.00000000	          8.72132044	          0.00000000	
          3.36400000	          0.01163404	          0.01786390	         -0.00244629	         -0.00015169	          0.00000000	         -0.00003150	         -3.78177440	        724.73866435	        -58.65093366	          0.21590274	          0.00000000	          0.15692563	          0.00000000	          0.00007865	          0.00000000	          0.00000000	          8.66092119	          0.00000000	
          3.36500000	          0.01011235	          0.01390379	         -0.00239440	         -0.00014224	          0.00000000	         -0.00002955	         -3.54083784	        724.00747039	        -58.66387954	          0.21614112	          0.00000000	          0.15700925	          0.00000000	          0.00007564	          0.00000000	          0.00000000	          8.60117467	          0.00000000	
          3.36600000	          0.00868184	          0.01022784	         -0.00233786	         -0.00013305	          0.00000000	         -0.00002766	         -3.30030603	        723.28345922	        -58.67887252	          0.21637810	          0.00000000	          0.15709188	          0.00000000	          0.00007259	          0.00000000	          0.00000000	          8.54208283	          0.00000000	
          3.36700000	          0.00734014	          0.00682579	         -0.00227731	         -0.00012414	          0.00000000	         -0.00002582	         -3.06015553	        722.56706340	        -58.69553932	          0.21661361	          0.00000000	          0.15717346	          0.00000000	          0.00006954	          0.00000000	          0.00000000	          8.48364719	          0.00000000	
